<?xml version="1.0" encoding="UTF-8" standalone="no"?>
<!-- Created with Inkscape (http://www.inkscape.org/) -->

<svg
   xmlns:dc="http://purl.org/dc/elements/1.1/"
   xmlns:cc="http://creativecommons.org/ns#"
   xmlns:rdf="http://www.w3.org/1999/02/22-rdf-syntax-ns#"
   xmlns:svg="http://www.w3.org/2000/svg"
   xmlns="http://www.w3.org/2000/svg"
   xmlns:sodipodi="http://sodipodi.sourceforge.net/DTD/sodipodi-0.dtd"
   xmlns:inkscape="http://www.inkscape.org/namespaces/inkscape"
   version="1.1"
   id="svg2"
   width="655.03998"
   height="308.48001"
   viewBox="0 0 655.03998 308.48001"
   sodipodi:docname="logo.svg"
   inkscape:version="0.92.5 (2060ec1f9f, 2020-04-08)">
  <metadata
     id="metadata8">
    <rdf:RDF>
      <cc:Work
         rdf:about="">
        <dc:format>image/svg+xml</dc:format>
        <dc:type
           rdf:resource="http://purl.org/dc/dcmitype/StillImage" />
      </cc:Work>
    </rdf:RDF>
  </metadata>
  <defs
     id="defs6" />
  <sodipodi:namedview
     pagecolor="#ffffff"
     bordercolor="#666666"
     borderopacity="1"
     objecttolerance="10"
     gridtolerance="10"
     guidetolerance="10"
     inkscape:pageopacity="0"
     inkscape:pageshadow="2"
     inkscape:window-width="1862"
     inkscape:window-height="1043"
     id="namedview4"
     showgrid="false"
     inkscape:zoom="1.9418662"
     inkscape:cx="235.65807"
     inkscape:cy="164.1978"
     inkscape:window-x="58"
     inkscape:window-y="0"
     inkscape:window-maximized="1"
     inkscape:current-layer="svg2" />
  <path
     style="fill:#000000;stroke-width:0.31999999"
     d="m 346.36656,307.97384 c 0.10685,-0.2784 0.19424,-36.6384 0.19424,-80.80001 V 146.88 h 13.88083 c 11.42614,0 13.94576,-0.0783 14.2481,-0.44255 0.2518,-0.30341 0.33958,-2.08927 0.27916,-5.68 l -0.0881,-5.23745 -14.01133,-0.0834 c -10.7895,-0.0642 -14.04563,-0.17457 -14.16045,-0.48 -0.082,-0.21814 -0.18492,-30.67263 -0.22867,-67.676628 l -0.0795,-67.279983027344 154.15999,8.0000002e-6 154.16,7e-6 V 154.24 308.48001 H 500.44655 c -140.54645,0 -154.25695,-0.045 -154.07999,-0.50617 z M 487.6168,218.49601 c 0.28918,-0.28918 0.384,-4.64878 0.384,-17.65549 v -17.2715 l 2.48,2.41188 c 5.94438,5.7811 12.31049,8.22913 20.39148,7.84138 14.2072,-0.6817 25.17066,-11.33233 28.65783,-27.8401 1.53027,-7.24415 1.5079,-16.34453 -0.058,-23.57195 -3.00624,-13.87551 -11.77913,-23.328 -23.93261,-25.78658 -3.4902,-0.70604 -9.09481,-0.49339 -12.32723,0.46774 -5.23366,1.55618 -9.59456,4.26546 -13.24838,8.23079 l -2.26589,2.45909 -0.0886,-4.93063 -0.0886,-4.93064 h -6.08 -6.08 l -0.081,50.04601 c -0.0595,36.72245 0.0147,50.16155 0.27917,50.48 0.48727,0.58713 11.47514,0.63269 12.05783,0.05 z m 13.39036,-36.28288 c -6.05001,-1.46456 -10.74422,-6.21459 -12.20441,-12.34952 -1.24544,-5.23253 -1.45895,-23.1143 -0.34135,-28.58361 2.05524,-10.05753 11.44355,-16.14772 21.75271,-14.11094 9.112,1.80026 14.81564,8.56214 17.03107,20.19094 0.78208,4.10519 0.77529,13.40385 -0.0125,17.12001 -2.00493,9.45723 -7.10218,15.32563 -15.28029,17.5919 -2.79837,0.77548 -8.04547,0.84317 -10.94522,0.14122 z m 66.92963,36.28288 c 0.28919,-0.28918 0.384,-4.64878 0.384,-17.65549 v -17.2715 l 2.48,2.41188 c 5.94439,5.7811 12.3105,8.22913 20.39149,7.84138 14.2072,-0.6817 25.17066,-11.33233 28.65782,-27.8401 1.53028,-7.24415 1.50791,-16.34453 -0.058,-23.57195 -3.00624,-13.87551 -11.77914,-23.328 -23.93261,-25.78658 -3.49021,-0.70604 -9.09481,-0.49339 -12.32723,0.46774 -5.23366,1.55618 -9.59456,4.26546 -13.24838,8.23079 l -2.26589,2.45909 -0.0886,-4.93063 -0.0886,-4.93064 h -6.08 -6.08 l -0.081,50.04601 c -0.0594,36.72245 0.0147,50.16155 0.27917,50.48 0.48726,0.58713 11.47513,0.63269 12.05782,0.05 z m 13.39037,-36.28288 c -6.05002,-1.46456 -10.74422,-6.21459 -12.20442,-12.34952 -1.24544,-5.23253 -1.45894,-23.1143 -0.34134,-28.58361 2.05523,-10.05753 11.44355,-16.14772 21.7527,-14.11094 9.112,1.80026 14.81565,8.56214 17.03108,20.19094 0.78208,4.10519 0.77529,13.40385 -0.0125,17.12001 -2.00493,9.45723 -7.10218,15.32563 -15.28029,17.5919 -2.79837,0.77548 -8.04547,0.84317 -10.94522,0.14122 z M 438.2408,193.1423 c 6.97452,-1.40316 13.06758,-4.47067 18.20307,-9.16421 0.98832,-0.90327 1.79693,-1.8197 1.79693,-2.03653 0,-0.64222 -6.4498,-7.86155 -7.02356,-7.86155 -0.2896,0 -1.09577,0.59002 -1.79152,1.31117 -2.70918,2.8082 -7.10073,5.24254 -11.47612,6.3615 -3.43597,0.87872 -8.75191,0.88633 -12.14938,0.0174 -8.62112,-2.20492 -15.25024,-9.40066 -17.84483,-19.37009 -0.65139,-2.50299 -0.7496,-3.63401 -0.75024,-8.64 0,-4.99705 0.0956,-6.11335 0.72685,-8.42772 2.05165,-7.52258 6.21619,-12.87547 12.3888,-15.924 3.49193,-1.7246 6.32582,-2.35717 10.56,-2.35717 5.50899,0 9.89584,1.41224 14.10464,4.54062 2.85158,2.11958 4.29235,4.02131 4.73148,6.2453 0.59204,2.99851 1.04845,2.79979 5.59815,-2.43738 2.21059,-2.54464 3.88573,-4.7517 3.88573,-5.11965 0,-0.89272 -2.80148,-4.17677 -5.37853,-6.30501 -11.54163,-9.5316 -29.65683,-10.29208 -42.79379,-1.79649 -12.44304,8.04684 -18.69197,23.15459 -16.28426,39.36972 2.5577,17.22522 14.51437,29.4517 31.33658,32.04372 2.47459,0.38129 9.28073,0.12962 12.16,-0.44965 z m -334.87998,-0.50602 c -11.86287,-1.12568 -21.437402,-7.39164 -26.398527,-17.27627 -2.992051,-5.96142 -4.127955,-11.37119 -4.132259,-19.68 -0.0032,-5.90606 0.285805,-8.54022 1.454183,-13.26077 3.213891,-12.98497 12.394131,-22.30773 24.436593,-24.81598 13.55561,-2.8234 25.68518,2.1333 31.80176,12.99566 3.04426,5.40626 5.06534,14.99739 4.77945,22.68108 l -0.1012,2.72001 -25.92,0.16 -25.920012,0.16 0.0526,3.04 c 0.1706,9.85325 5.60627,18.80735 13.707372,22.57994 3.9979,1.86179 5.83636,2.2167 11.36,2.19303 4.52304,-0.0194 5.19962,-0.0995 7.68,-0.90955 3.61022,-1.17902 6.50262,-2.72289 9.07232,-4.84249 1.16083,-0.95751 2.22563,-1.74093 2.36621,-1.74093 0.14058,0 1.47305,1.2238 2.96104,2.71957 l 2.70544,2.71957 -1.89107,1.78827 c -6.97054,6.59163 -17.20335,9.79468 -28.01394,8.76886 z m 21.056,-44.86028 c 0.53026,-0.53026 0.47843,-4.39156 -0.0958,-7.136 -1.17032,-5.59342 -5.4212,-11.22731 -10.31906,-13.67635 -10.98107,-5.49078 -23.815232,-0.0202 -28.509372,12.15209 -1.12343,2.91314 -2.18444,7.70851 -1.8807,8.50005 0.19352,0.5043 1.68358,0.54421 20.314892,0.54421 15.21136,0 20.19952,-0.0935 20.49004,-0.384 z M 0.0257,155.20001 0,118.56 l 5.79745,0.0942 5.79744,0.0943 -0.11706,6.62575 c -0.13585,7.68878 -0.006,7.96216 2.09384,4.41379 2.64038,-4.46144 7.81695,-8.73416 13.00641,-10.73543 4.39165,-1.6936 6.40936,-2.05255 11.50268,-2.04636 4.109164,0.005 4.962441,0.1038 7.458393,0.86363 1.550112,0.47189 3.566112,1.23559 4.48,1.69711 2.908192,1.46865 6.924691,4.42481 6.93584,5.10481 0.0098,0.59642 -4.474621,9.72821 -4.777287,9.72821 -0.156611,0 -0.61687,-0.54 -1.0228,-1.2 -4.178387,-6.79364 -12.561556,-9.08248 -21.422006,-5.84882 -7.81335,2.85152 -14.67541,10.83827 -17.62211,20.51035 -0.71521,2.34759 -0.72603,2.64568 -0.83263,22.95294 l -0.108,20.57446 -5.42515,-0.0945 c -3.40487,-0.0593 -5.47516,0.0247 -5.55944,0.22554 -0.0738,0.176 -0.14582,-16.168 -0.15992,-36.32 z m 171.17511,6.4473 c 0,-24.3437 -0.0771,-29.79291 -0.42552,-30.08209 -0.27663,-0.22958 -3.04784,-0.38325 -7.91999,-0.43918 l -7.49448,-0.086 v -4 -4 l 7.75532,-0.0857 c 7.73474,-0.0854 7.75573,-0.0876 7.90473,-0.8 0.0822,-0.39287 0.21557,-3.88232 0.29647,-7.75432 0.1589,-7.60592 0.57164,-10.16241 2.31123,-14.3157 4.2749,-10.206288 15.07678,-16.385128 27.65224,-15.817478 7.24064,0.32684 12.5961,2.38173 17.86007,6.85293 2.97301,2.52527 2.95733,2.14908 0.32145,7.70672 -2.12298,4.476238 -3.14152,5.838208 -3.14152,4.200778 0,-1.23817 -1.23586,-3.068088 -3.54016,-5.241848 -5.86802,-5.53559 -14.52027,-6.9188 -21.73233,-3.47427 -3.18558,1.52145 -5.72555,4.05589 -7.20583,7.190158 -1.99033,4.21424 -2.22017,5.64166 -2.23152,13.85871 l -0.0101,7.36 11.84,0.16 11.84,0.16 v 4 4 l -11.84,0.16 -11.84,0.16 -0.16,29.92001 -0.16,29.92 -5.04,0.0881 -5.04,0.0881 v -29.72899 z m 67.01927,29.29407 c -0.0884,-0.23025 -0.11983,-2.13825 -0.07,-4.24 l 0.0907,-3.82137 10.71999,-0.16 10.72,-0.16 V 138.24 93.920012 l -10.32,-0.0844 -10.31999,-0.0844 v -4.31557 -4.31557 h 15.83897 15.83897 l 0.081,48.719998 0.081,48.72001 10.64,0.0843 10.64,0.0843 v 4.31569 4.31569 h -26.89004 c -21.85504,0 -26.92011,-0.0784 -27.05068,-0.41863 z m 78.97238,-49.90138 0.0883,-4.88 h 14.24 14.24 l 0.0883,4.88 0.0883,4.88 h -14.41667 -14.41667 z"
     id="path33"
     inkscape:connector-curvature="0" />
</svg>
